<svg viewBox="0 0 338 85" fill="none" xmlns="http://www.w3.org/2000/svg">
<path d="M34.272 56.352C33.152 58.336 31.552 58.784 29.472 57.696L2.4 42.528C0.800001 41.6 1.19209e-06 40.224 1.19209e-06 38.4C1.19209e-06 36.896 0.800001 35.68 2.4 34.752L29.472 19.68C31.488 18.624 33.088 19.072 34.272 21.024C35.328 23.072 34.848 24.672 32.832 25.824L7.296 39.936V37.248L32.928 51.648C34.912 52.832 35.36 54.4 34.272 56.352ZM76.068 70.08C74.724 70.08 73.716 69.744 73.044 69.072C72.372 68.4 72.036 67.392 72.036 66.048V13.152H53.412C52.068 13.152 51.06 12.816 50.388 12.144C49.716 11.472 49.38 10.464 49.38 9.12C49.38 7.776 49.716 6.768 50.388 6.096C51.06 5.424 52.068 5.088 53.412 5.088H98.724C100.068 5.088 101.076 5.424 101.748 6.096C102.42 6.768 102.756 7.776 102.756 9.12C102.756 10.464 102.42 11.472 101.748 12.144C101.076 12.816 100.068 13.152 98.724 13.152H80.1V66.048C80.1 67.328 79.748 68.32 79.044 69.024C78.372 69.728 77.38 70.08 76.068 70.08ZM131.821 70.08C126.349 70.08 122.077 68.976 119.005 66.768C115.965 64.56 114.061 61.152 113.293 56.544C113.165 55.136 113.453 54.08 114.157 53.376C114.861 52.672 115.885 52.32 117.229 52.32C118.573 52.32 119.549 52.64 120.157 53.28C120.797 53.92 121.229 54.912 121.453 56.256C121.933 58.464 122.957 59.984 124.525 60.816C126.125 61.616 128.557 62.016 131.821 62.016H145.645C149.773 62.016 152.573 61.28 154.045 59.808C155.549 58.304 156.301 55.52 156.301 51.456C156.301 47.328 155.533 44.512 153.997 43.008C152.461 41.472 149.677 40.704 145.645 40.704H133.741C127.693 40.704 123.197 39.232 120.253 36.288C117.341 33.312 115.885 28.8 115.885 22.752C115.885 16.736 117.325 12.272 120.205 9.36C123.117 6.448 127.597 4.992 133.645 4.992H145.069C150.157 4.992 154.141 6.032 157.021 8.112C159.933 10.192 161.773 13.376 162.541 17.664C162.733 19.04 162.477 20.096 161.773 20.832C161.069 21.536 160.013 21.888 158.605 21.888C157.325 21.888 156.365 21.552 155.725 20.88C155.085 20.208 154.669 19.232 154.477 17.952C153.965 16.064 152.989 14.784 151.549 14.112C150.109 13.408 147.949 13.056 145.069 13.056H133.645C129.805 13.056 127.229 13.744 125.917 15.12C124.605 16.464 123.949 19.008 123.949 22.752C123.949 26.528 124.621 29.12 125.965 30.528C127.309 31.936 129.901 32.64 133.741 32.64H145.645C151.949 32.64 156.637 34.176 159.709 37.248C162.813 40.32 164.365 45.056 164.365 51.456C164.365 57.824 162.829 62.528 159.757 65.568C156.685 68.576 151.981 70.08 145.645 70.08H131.821ZM198.53 70.08C192.162 70.08 187.426 68.544 184.322 65.472C181.25 62.368 179.714 57.632 179.714 51.264V40.128C179.714 33.728 181.234 28.992 184.274 25.92C187.346 22.848 192.098 21.344 198.53 21.408H206.402C211.17 21.408 214.914 22.208 217.634 23.808C220.386 25.408 222.146 27.872 222.914 31.2C223.202 32.544 222.962 33.584 222.194 34.32C221.458 35.056 220.386 35.424 218.978 35.424C217.73 35.424 216.818 35.104 216.242 34.464C215.666 33.824 215.138 32.928 214.658 31.776C214.178 30.912 213.298 30.32 212.018 30C210.738 29.648 208.866 29.472 206.402 29.472H198.53C194.402 29.408 191.57 30.128 190.034 31.632C188.53 33.104 187.778 35.936 187.778 40.128V51.264C187.778 55.424 188.53 58.256 190.034 59.76C191.57 61.264 194.402 62.016 198.53 62.016H206.402C208.866 62.016 210.738 61.856 212.018 61.536C213.298 61.184 214.178 60.576 214.658 59.712C215.138 58.496 215.666 57.584 216.242 56.976C216.85 56.368 217.794 56.064 219.074 56.064C220.418 56.064 221.458 56.432 222.194 57.168C222.962 57.904 223.202 58.944 222.914 60.288C222.146 63.584 220.386 66.048 217.634 67.68C214.914 69.28 211.17 70.08 206.402 70.08H198.53ZM267.461 84.768C265.925 84.768 264.789 84.288 264.053 83.328C263.317 82.368 263.141 81.12 263.525 79.584L283.205 3.168C283.877 1.056 285.189 0 287.141 0C288.677 0 289.813 0.496 290.549 1.488C291.317 2.448 291.461 3.68 290.981 5.184L271.397 81.6C270.821 83.712 269.509 84.768 267.461 84.768ZM303.007 56.352C301.919 54.4 302.367 52.832 304.351 51.648L329.983 37.248V39.936L304.447 25.824C302.431 24.672 301.951 23.072 303.007 21.024C304.191 19.072 305.791 18.624 307.807 19.68L334.879 34.752C336.479 35.68 337.279 36.896 337.279 38.4C337.279 40.224 336.479 41.6 334.879 42.528L307.807 57.696C305.727 58.784 304.127 58.336 303.007 56.352Z" fill="currentColor"/>
</svg>
